<?xml version="1.0" encoding="UTF-8" standalone="no"?>
<!DOCTYPE svg PUBLIC "-//W3C//DTD SVG 1.1//EN" "http://www.w3.org/Graphics/SVG/1.1/DTD/svg11.dtd">
<svg width="100%" height="100%" viewBox="0 0 151 65" version="1.1" xmlns="http://www.w3.org/2000/svg" xmlns:xlink="http://www.w3.org/1999/xlink" xml:space="preserve" xmlns:serif="http://www.serif.com/" style="fill-rule:evenodd;clip-rule:evenodd;stroke-linejoin:round;stroke-miterlimit:1.41421;">
    <g transform="matrix(0.227626,0,0,0.227626,-1.19731,-1.31866)">
        <path d="M137.412,198.195C138.056,198.83 138.72,199.445 139.402,200.04C146.229,206.009 154.879,210.072 164.829,213.371C168.048,214.438 173.754,215.82 177.244,216.585C186.334,218.581 200.034,218.763 208.503,216.475C214.204,214.934 219.087,213.617 224.215,211.384C232.825,207.634 240.684,202.84 247.975,197.704C250.783,195.725 252.706,194.055 255.502,191.978C256.489,191.244 258.052,189.872 258.939,189.095C263.075,192.674 266.803,194.597 270.775,197.224C277.886,201.927 285.907,206.3 294.775,209.224C297.673,210.179 299.839,210.673 302.945,211.487C307.118,212.58 317.577,214.037 329.815,211.384C335.32,210.191 340.729,208.894 345.655,206.824C353.813,203.396 361.538,199.341 368.695,194.824C371.326,193.164 373.957,191.314 376.615,189.544C377.585,188.898 378.376,188.32 379.495,187.624C379.473,194.428 379.975,207.544 379.975,207.544C379.975,207.544 444.618,207.544 476.934,207.544C477.014,185.946 477.175,142.744 477.175,142.744L493.735,142.744L493.735,85.144L527.095,85.144L527.335,14.825L386.967,14.567L386.89,31.144C386.75,31.144 386.609,31.144 386.468,31.144C386.468,31.144 386.468,31.522 386.467,32.141C384.879,30.397 378.699,23.988 369.675,19.334C365.36,17.108 358.59,13.902 348.295,12.904C341.391,12.235 331.876,11.962 323.575,13.385C315.028,14.849 310.721,15.825 305.605,17.726C300.034,19.798 295.579,21.393 290.695,24.424C288.092,26.04 287.038,26.206 284.215,28.265C284.215,24.025 284.279,18.469 284.279,14.229C248.923,14.229 213.555,14.229 178.199,14.229C178.199,29.348 178.135,60.904 178.135,60.904L202.375,75.544L202.375,143.944L195.423,146.336L195.403,146.336C189.842,140.947 184.512,135.581 177.18,132.95C173.014,131.454 168.519,130.638 163.832,130.638C146.535,130.638 125.232,147.61 124.657,169.448C124.235,185.485 136.038,196.871 137.478,198.241L137.412,198.195ZM379.975,7.624C379.975,10.744 379.975,13.865 379.975,16.984C377.656,15.731 376.647,15.003 375.175,14.104C373.202,12.901 370.752,11.874 368.695,10.984C362.18,8.166 355.08,6.505 347.095,5.705C340.966,5.09 329.277,5.465 324.295,6.185C310.372,8.194 297.612,13.3 295.255,14.345C293.96,14.918 292.858,15.066 291.175,16.265C291.175,13.625 291.239,9.669 291.239,7.029C263.402,7.029 170.999,7.269 170.999,7.269L170.935,64.745L195.415,79.624L195.415,135.304C195.415,135.304 192.249,132.705 190.823,131.732C186.92,129.071 181.088,125.244 171.093,123.641C160.728,121.977 151.705,124.209 147.454,125.885C132.906,131.622 124.575,140.533 119.271,155.232C116.112,163.989 116.833,178.676 121.975,188.584C132.657,209.167 152.053,218.242 177.175,223.624C183.112,224.896 195.201,225.564 202.185,224.789C207.211,224.23 211.403,223.16 215.815,221.704C226.682,218.119 236.242,213.713 244.855,208.024C248.986,205.294 255.115,200.956 258.775,197.944C260.601,199.072 261.555,199.914 262.855,200.824C265.63,202.769 268.671,204.597 271.495,206.344C277.838,210.268 285.23,213.222 292.615,215.944C315.299,224.305 341.892,217.067 358.375,208.504C362.45,206.387 366.209,204.344 369.895,202.024C370.787,201.462 371.449,201.289 372.295,200.584C372.455,200.584 372.775,200.584 372.775,200.584L373.014,209.944L373.255,214.504L484.135,214.504C484.135,192.906 484.135,171.302 484.135,149.704C489.734,149.704 495.336,149.704 500.934,149.704C500.934,130.507 500.934,111.302 500.934,92.104C512.054,92.104 523.176,92.104 534.295,92.104C534.295,63.947 534.295,35.782 534.295,7.624C482.86,7.624 431.41,7.624 379.975,7.624Z" style="fill:rgb(223,177,101);"/>
    </g>
    <g transform="matrix(0.227626,0,0,0.227626,-1.19731,-1.31866)">
        <path d="M331.275,185.348C290.237,185.348 256.969,151.927 256.969,110.699C256.969,69.472 290.237,36.051 331.275,36.051C372.314,36.051 405.582,69.472 405.582,110.699C405.582,151.927 372.314,185.348 331.275,185.348ZM512.455,31.144C470.76,31.144 386.468,31.144 386.468,31.144C386.468,31.144 386.455,41.143 386.455,44.345C394.393,45.807 399.618,46.699 403.495,52.024C404.059,52.8 404.832,54.664 404.832,54.664C404.832,54.664 404.924,71.92 404.924,74.48L404.931,74.552C391.606,47.201 363.63,28.366 331.275,28.366C295.181,28.366 264.536,51.806 253.602,84.361C253.588,84.403 253.574,84.445 253.56,84.487C253.56,84.491 253.56,84.496 253.561,84.5L253.546,84.529C253.551,84.516 253.555,84.501 253.56,84.487C253.369,80.496 253.411,69.712 253.607,65.671C253.44,61.847 254.812,55.319 261.006,48.712C265.994,43.391 276.386,43.641 276.386,43.641L276.284,31.527C276.284,31.527 221.561,31.527 194.203,31.527C194.203,37.446 194.203,48.241 194.203,48.241L213.884,59.935L213.884,148.573C213.884,148.573 215.338,171.825 208.844,180.732C206.183,184.381 201.065,187.187 193.528,187.409C191.326,187.473 189.881,187.599 186.101,187.187C184.594,187.023 183.354,186.79 183.17,186.592C189.047,182.003 192.825,174.894 192.825,166.906C192.825,153.068 181.502,141.85 167.533,141.85C153.565,141.85 142.242,153.068 142.242,166.906C142.242,171.367 143.424,175.552 145.487,179.18L145.459,179.175C145.532,179.288 145.601,179.39 145.673,179.5C146.362,180.671 147.138,181.786 148.004,182.827C150.933,186.64 153.836,188.872 159.675,192.31C161.795,193.558 169.2,196.372 171.647,197.187C180.958,200.291 194.513,200.57 204.044,198.252C214.314,195.755 223.051,192.31 230.683,187.212C232.83,185.779 234.541,184.305 237.201,182.088C239.381,180.272 241.712,178.185 243.404,175.932C247.641,170.29 251.346,164.574 254.203,157.453C255.295,154.733 256.364,148.573 256.364,148.573L256.603,146.413C256.608,146.358 256.62,145.103 256.603,144.732L256.638,144.729C269.374,173.596 297.821,193.033 331.275,193.033C363.449,193.033 391.281,174.413 404.695,147.31L404.695,147.306L404.696,147.307C404.695,147.308 404.695,147.309 404.695,147.31C404.695,147.386 404.695,159.326 404.695,166.024C402.671,174.252 393.242,183.918 386.455,187.384C386.455,189.144 386.455,192.664 386.455,192.664C386.455,192.664 442.618,192.664 470.695,192.664C470.15,190.686 467.287,183.66 466.135,182.344C465.053,181.459 448.854,175.864 448.854,175.864L448.736,112.264C448.736,112.264 458.615,112.264 463.974,112.264C465.814,114.104 481.255,129.304 482.455,130.504C482.615,130.504 482.775,130.504 482.934,130.504C482.934,113.066 482.934,95.623 482.934,78.184C480.375,78.184 477.814,78.184 475.255,78.184C474.647,78.914 472.349,83.432 471.655,84.424C467.476,90.395 462.28,98.149 453.894,99.785C451.879,100.177 450.039,99.254 448.854,98.345C448.854,82.346 448.854,66.343 448.854,50.345C458.853,50.345 468.855,50.345 478.854,50.345C482.905,50.344 492.383,49.734 496.207,51.812C502.328,55.139 506.345,59.077 506.934,66.904C507.014,66.984 507.095,67.064 507.175,67.144C509.691,66.779 512.224,65.724 513.893,65.225C513.974,65.144 514.055,65.064 514.135,64.984C513.575,53.705 513.013,42.423 512.455,31.144Z" style="fill:rgb(223,177,101);"/>
    </g>
    <g transform="matrix(0.227626,0,0,0.227626,-1.19731,-1.31866)">
        <rect x="5.26" y="10.632" width="153.694" height="7.981" style="fill:rgb(223,177,101);"/>
    </g>
    <g transform="matrix(0.227626,0,0,0.227626,-1.19731,-1.31866)">
        <rect x="5.26" y="22.072" width="153.694" height="7.981" style="fill:rgb(223,177,101);"/>
    </g>
    <g transform="matrix(0.227626,0,0,0.227626,-1.19731,-1.31866)">
        <rect x="5.26" y="33.511" width="153.694" height="7.981" style="fill:rgb(223,177,101);"/>
    </g>
    <g transform="matrix(0.227626,0,0,0.227626,-1.19731,-1.31866)">
        <rect x="5.26" y="44.951" width="153.694" height="7.981" style="fill:rgb(223,177,101);"/>
    </g>
    <g transform="matrix(0.227626,0,0,0.227626,-1.19731,-1.31866)">
        <rect x="5.26" y="56.39" width="153.694" height="7.981" style="fill:rgb(223,177,101);"/>
    </g>
    <g transform="matrix(0.227626,0,0,0.227626,-1.19731,-1.31866)">
        <rect x="5.26" y="90.752" width="172.317" height="7.981" style="fill:rgb(223,177,101);"/>
    </g>
    <g transform="matrix(0.227626,0,0,0.227626,-1.19731,-1.31866)">
        <path d="M177.505,87.56L5.26,87.56L5.26,79.579L170.815,79.579L177.505,83.514L177.505,87.56Z" style="fill:rgb(223,177,101);fill-rule:nonzero;"/>
    </g>
    <g transform="matrix(0.227626,0,0,0.227626,-1.19731,-1.31866)">
        <path d="M164.275,75.81L5.26,75.81L5.26,67.83L158.954,67.83L158.954,72.485L164.275,75.81Z" style="fill:rgb(223,177,101);fill-rule:nonzero;"/>
    </g>
    <g transform="matrix(0.227626,0,0,0.227626,-1.19731,-1.31866)">
        <rect x="545.81" y="10.854" width="122.819" height="7.171" style="fill:rgb(223,177,101);"/>
    </g>
    <g transform="matrix(0.227626,0,0,0.227626,-1.19731,-1.31866)">
        <rect x="545.81" y="22.382" width="122.819" height="7.172" style="fill:rgb(223,177,101);"/>
    </g>
    <g transform="matrix(0.227626,0,0,0.227626,-1.19731,-1.31866)">
        <rect x="545.81" y="33.91" width="122.819" height="7.171" style="fill:rgb(223,177,101);"/>
    </g>
    <g transform="matrix(0.227626,0,0,0.227626,-1.19731,-1.31866)">
        <rect x="545.81" y="45.438" width="122.819" height="7.172" style="fill:rgb(223,177,101);"/>
    </g>
    <g transform="matrix(0.227626,0,0,0.227626,-1.19731,-1.31866)">
        <rect x="545.81" y="56.966" width="122.819" height="7.172" style="fill:rgb(223,177,101);"/>
    </g>
    <g transform="matrix(0.227626,0,0,0.227626,-1.19731,-1.31866)">
        <rect x="545.81" y="68.495" width="122.819" height="7.171" style="fill:rgb(223,177,101);"/>
    </g>
    <g transform="matrix(0.227626,0,0,0.227626,-1.19731,-1.31866)">
        <rect x="545.81" y="80.022" width="122.819" height="7.172" style="fill:rgb(223,177,101);"/>
    </g>
    <g transform="matrix(0.227626,0,0,0.227626,-1.19731,-1.31866)">
        <rect x="545.81" y="91.551" width="122.819" height="7.171" style="fill:rgb(223,177,101);"/>
    </g>
    <g transform="matrix(0.227626,0,0,0.227626,-1.19731,-1.31866)">
        <rect x="513.857" y="102.716" width="154.772" height="7.533" style="fill:rgb(223,177,101);"/>
    </g>
    <g transform="matrix(0.227626,0,0,0.227626,-1.19731,-1.31866)">
        <rect x="513.857" y="114.023" width="154.772" height="7.533" style="fill:rgb(223,177,101);"/>
    </g>
    <g transform="matrix(0.227626,0,0,0.227626,-1.19731,-1.31866)">
        <rect x="513.857" y="125.329" width="154.772" height="7.534" style="fill:rgb(223,177,101);"/>
    </g>
    <g transform="matrix(0.227626,0,0,0.227626,-1.19731,-1.31866)">
        <rect x="513.857" y="136.635" width="154.772" height="7.533" style="fill:rgb(223,177,101);"/>
    </g>
    <g transform="matrix(0.227626,0,0,0.227626,-1.19731,-1.31866)">
        <rect x="513.857" y="147.942" width="154.772" height="7.533" style="fill:rgb(223,177,101);"/>
    </g>
    <g transform="matrix(0.227626,0,0,0.227626,-1.19731,-1.31866)">
        <path d="M499.255,166.04L499.255,168.256L668.629,168.199L668.629,160.135L513.857,160.135L513.887,165.928L499.255,166.04Z" style="fill:rgb(223,177,101);"/>
    </g>
    <g transform="matrix(0.227626,0,0,0.227626,-1.19731,-1.31866)">
        <rect x="499.411" y="171.78" width="169.218" height="6.982" style="fill:rgb(223,177,101);"/>
    </g>
    <g transform="matrix(0.227626,0,0,0.227626,-1.19731,-1.31866)">
        <rect x="499.411" y="183.308" width="169.218" height="6.982" style="fill:rgb(223,177,101);"/>
    </g>
    <g transform="matrix(0.227626,0,0,0.227626,-1.19731,-1.31866)">
        <rect x="499.411" y="194.171" width="169.218" height="6.983" style="fill:rgb(223,177,101);"/>
    </g>
    <g transform="matrix(0.227626,0,0,0.227626,-1.19731,-1.31866)">
        <rect x="499.411" y="205.921" width="169.218" height="6.983" style="fill:rgb(223,177,101);"/>
    </g>
    <g transform="matrix(0.227626,0,0,0.227626,-1.19731,-1.31866)">
        <path d="M177.392,103.384L177.466,109.84C177.466,109.84 177.558,109.864 177.078,109.864C173.642,108.455 164.111,107.82 159.675,107.956C155.885,108.072 150.406,109.154 147.26,109.864C140.701,109.864 128.935,109.864 128.935,109.864L5.26,109.864L5.26,103.078L177.392,103.384Z" style="fill:rgb(223,177,101);"/>
    </g>
    <g transform="matrix(0.227626,0,0,0.227626,-1.19731,-1.31866)">
        <path d="M5.26,114.424C5.26,114.424 91.815,114.424 135.012,114.424C134.766,114.617 134.539,114.784 134.125,114.939C132.317,115.768 130.502,116.667 129.136,117.655C126.125,119.834 126.532,119.428 124.093,121.384C114.974,121.384 106.854,121.384 97.734,121.384C67.178,121.384 5.26,121.384 5.26,121.384L5.26,114.424Z" style="fill:rgb(223,177,101);"/>
    </g>
    <g transform="matrix(0.227626,0,0,0.227626,-1.19731,-1.31866)">
        <path d="M5.26,125.704C5.26,125.704 81.441,125.704 119.438,125.704C119.438,125.784 118.274,126.744 116.611,128.628C114.061,131.732 114.45,131.289 113.285,132.786C110.3,132.795 108.002,132.904 105.895,132.904C98.855,132.904 91.814,132.904 84.774,132.904C58.537,132.904 5.26,132.904 5.26,132.904L5.26,125.704Z" style="fill:rgb(223,177,101);"/>
    </g>
    <g transform="matrix(0.227626,0,0,0.227626,-1.19731,-1.31866)">
        <path d="M5.26,144.184L5.26,137.464C5.26,137.464 86.006,137.224 110.404,137.224C110.404,137.304 109.572,138.715 108.63,140.378C107.355,142.706 106.968,144.184 106.968,144.184L5.26,144.184Z" style="fill:rgb(223,177,101);"/>
    </g>
    <g transform="matrix(0.227626,0,0,0.227626,-1.19731,-1.31866)">
        <path d="M5.26,148.744C5.26,148.744 71.806,148.744 105.083,148.744C105.083,148.824 105.194,148.723 105.194,148.802C104.363,151.075 103.864,153.403 103.309,155.704L5.26,155.704L5.26,148.744Z" style="fill:rgb(223,177,101);"/>
    </g>
    <g transform="matrix(0.227626,0,0,0.227626,-1.19731,-1.31866)">
        <path d="M102.312,167.224L5.26,167.224L5.26,160.504L102.534,160.264C102.589,160.386 102.423,161.55 102.312,163.379C102.201,165.984 102.312,167.224 102.312,167.224Z" style="fill:rgb(223,177,101);"/>
    </g>
    <g transform="matrix(0.227626,0,0,0.227626,-1.19731,-1.31866)">
        <path d="M5.26,171.784C5.26,171.784 70.568,171.784 102.645,171.784C102.638,174.34 103.608,178.987 103.608,178.987L5.26,178.744L5.26,171.784Z" style="fill:rgb(223,177,101);"/>
    </g>
    <g transform="matrix(0.227626,0,0,0.227626,-1.19731,-1.31866)">
        <path d="M107.3,190.264L5.26,190.264L5.26,183.304C5.26,183.304 104.67,183.224 104.75,183.304C105.693,186.213 107.3,190.264 107.3,190.264Z" style="fill:rgb(223,177,101);"/>
    </g>
    <g transform="matrix(0.227626,0,0,0.227626,-1.19731,-1.31866)">
        <path d="M5.26,194.584C5.26,194.584 75.305,194.584 109.461,194.584C110.83,196.989 114.228,201.784 114.228,201.784L5.26,201.784L5.26,194.584Z" style="fill:rgb(223,177,101);"/>
    </g>
    <g transform="matrix(0.227626,0,0,0.227626,-1.19731,-1.31866)">
        <path d="M5.26,213.064L5.26,206.344C5.26,206.344 91.968,206.104 117.886,206.104C120.435,208.881 125.479,213.064 125.479,213.064L5.26,213.064Z" style="fill:rgb(223,177,101);"/>
    </g>
    <g transform="matrix(0.227626,0,0,0.227626,-1.19731,-1.31866)">
        <path d="M329.77,168.368C328.866,166.225 321.424,153.436 317.133,138.272C311.709,119.098 311.418,92.375 329.271,54.639L329.278,54.5C348.622,92.196 347.62,117.845 341.742,139.769C337.66,154.991 330.68,166.086 329.777,168.229L329.77,168.368ZM329.682,182.5C328.52,179.934 318.923,165.744 312.603,147.81C303.241,121.239 303.51,84.932 329.682,40.006L329.691,39.841C355.863,84.766 356.133,121.073 346.77,147.644C340.451,165.579 330.853,179.768 329.691,182.334L329.682,182.5Z" style="fill:rgb(223,177,101);"/>
    </g>
    <g transform="matrix(1.03522,0,0,1.03522,1.76847,62.5319)">
        <path d="M6.627,-9.277C6.636,-9.277 6.64,-9.29 6.64,-9.316L6.64,-9.534C6.64,-9.57 6.636,-9.588 6.627,-9.588L2.272,-9.588C2.263,-9.588 2.256,-9.571 2.252,-9.536C2.247,-9.502 2.245,-9.463 2.245,-9.42C2.245,-9.385 2.247,-9.353 2.252,-9.323C2.256,-9.292 2.263,-9.277 2.272,-9.277L3.421,-9.277C3.458,-9.277 3.476,-9.259 3.476,-9.223L3.476,-1.192C3.476,-1.002 3.469,-0.84 3.455,-0.704C3.442,-0.569 3.41,-0.454 3.361,-0.359C3.311,-0.264 3.234,-0.194 3.131,-0.149C3.027,-0.104 2.885,-0.081 2.705,-0.081C2.588,-0.081 2.47,-0.104 2.353,-0.149C2.236,-0.194 2.13,-0.257 2.035,-0.338C1.941,-0.419 1.862,-0.514 1.799,-0.622C1.736,-0.73 1.704,-0.847 1.704,-0.974C1.704,-1.136 1.738,-1.255 1.805,-1.332C1.873,-1.409 1.95,-1.483 2.035,-1.555C2.121,-1.627 2.198,-1.718 2.265,-1.826C2.333,-1.934 2.367,-2.096 2.367,-2.313C2.367,-2.457 2.34,-2.599 2.286,-2.739C2.231,-2.878 2.157,-3 2.062,-3.104C1.968,-3.207 1.857,-3.291 1.731,-3.354C1.605,-3.417 1.47,-3.449 1.325,-3.449C1.199,-3.449 1.071,-3.417 0.94,-3.354C0.809,-3.291 0.69,-3.201 0.582,-3.083C0.473,-2.966 0.385,-2.824 0.318,-2.657C0.25,-2.491 0.216,-2.308 0.216,-2.11C0.216,-1.812 0.291,-1.524 0.44,-1.244C0.588,-0.965 0.782,-0.717 1.021,-0.5C1.26,-0.284 1.526,-0.108 1.819,0.027C2.112,0.162 2.407,0.23 2.705,0.23C3.101,0.23 3.464,0.173 3.793,0.061C4.122,-0.052 4.406,-0.215 4.645,-0.427C4.884,-0.639 5.069,-0.899 5.2,-1.206C5.331,-1.513 5.396,-1.865 5.396,-2.262L5.396,-9.223C5.396,-9.259 5.432,-9.277 5.504,-9.277L6.627,-9.277Z" style="fill:rgb(223,177,101);fill-rule:nonzero;"/>
        <path d="M15.836,-4.787C15.836,-5.482 15.726,-6.135 15.505,-6.748C15.284,-7.361 14.984,-7.896 14.606,-8.351C14.227,-8.806 13.783,-9.165 13.274,-9.426C12.764,-9.687 12.221,-9.818 11.644,-9.818C11.04,-9.818 10.483,-9.683 9.974,-9.412C9.464,-9.142 9.023,-8.777 8.648,-8.317C8.274,-7.857 7.983,-7.323 7.776,-6.715C7.569,-6.106 7.465,-5.464 7.465,-4.787C7.465,-4.093 7.576,-3.442 7.796,-2.833C8.017,-2.225 8.317,-1.693 8.696,-1.237C9.074,-0.782 9.516,-0.424 10.021,-0.162C10.526,0.099 11.067,0.23 11.644,0.23C12.221,0.23 12.764,0.099 13.274,-0.162C13.783,-0.424 14.227,-0.782 14.606,-1.237C14.984,-1.693 15.284,-2.225 15.505,-2.833C15.726,-3.442 15.836,-4.093 15.836,-4.787ZM13.713,-4.787C13.713,-4.138 13.7,-3.584 13.672,-3.124C13.645,-2.664 13.603,-2.272 13.544,-1.947C13.485,-1.623 13.409,-1.352 13.314,-1.136C13.219,-0.92 13.1,-0.735 12.956,-0.582C12.784,-0.383 12.588,-0.25 12.367,-0.183C12.147,-0.115 11.905,-0.081 11.644,-0.081C11.382,-0.081 11.146,-0.115 10.934,-0.183C10.722,-0.25 10.53,-0.383 10.359,-0.582C10.215,-0.735 10.093,-0.92 9.994,-1.136C9.895,-1.352 9.816,-1.623 9.757,-1.947C9.699,-2.272 9.656,-2.664 9.629,-3.124C9.602,-3.584 9.588,-4.138 9.588,-4.787C9.588,-5.923 9.645,-6.832 9.757,-7.512C9.87,-8.193 10.071,-8.691 10.359,-9.007C10.53,-9.187 10.722,-9.313 10.934,-9.385C11.146,-9.458 11.382,-9.494 11.644,-9.494C11.905,-9.494 12.147,-9.458 12.367,-9.385C12.588,-9.313 12.784,-9.187 12.956,-9.007C13.244,-8.691 13.443,-8.193 13.551,-7.512C13.659,-6.832 13.713,-5.923 13.713,-4.787Z" style="fill:rgb(223,177,101);fill-rule:nonzero;"/>
        <path d="M23.991,-6.573L23.991,-9.548C23.991,-9.575 23.978,-9.588 23.95,-9.588L17.013,-9.588C17.004,-9.588 16.997,-9.571 16.993,-9.536C16.988,-9.502 16.986,-9.463 16.986,-9.42C16.986,-9.385 16.988,-9.353 16.993,-9.323C16.997,-9.292 17.004,-9.277 17.013,-9.277L18.162,-9.277C18.198,-9.277 18.216,-9.259 18.216,-9.223L18.216,-0.365C18.216,-0.329 18.198,-0.311 18.162,-0.311L17.013,-0.311C17.004,-0.311 16.997,-0.294 16.993,-0.259C16.988,-0.225 16.986,-0.186 16.986,-0.143C16.986,-0.108 16.988,-0.076 16.993,-0.045C16.997,-0.015 17.004,0 17.013,0L21.367,0C21.376,0 21.381,-0.014 21.381,-0.041L21.381,-0.259C21.381,-0.294 21.376,-0.311 21.367,-0.311L20.218,-0.311C20.173,-0.311 20.15,-0.329 20.15,-0.365L20.15,-4.756L20.38,-4.756C20.633,-4.756 20.874,-4.704 21.104,-4.6C21.334,-4.496 21.534,-4.356 21.706,-4.18C21.877,-4.004 22.012,-3.805 22.111,-3.584C22.21,-3.362 22.26,-3.139 22.26,-2.913C22.26,-2.904 22.276,-2.897 22.307,-2.893C22.339,-2.888 22.373,-2.886 22.409,-2.886C22.454,-2.886 22.492,-2.888 22.524,-2.893C22.555,-2.897 22.571,-2.904 22.571,-2.913L22.571,-6.924C22.571,-6.933 22.553,-6.938 22.517,-6.938L22.301,-6.938C22.274,-6.938 22.26,-6.933 22.26,-6.924C22.26,-6.69 22.21,-6.462 22.111,-6.241C22.012,-6.02 21.877,-5.824 21.706,-5.653C21.534,-5.482 21.334,-5.344 21.104,-5.24C20.874,-5.137 20.633,-5.085 20.38,-5.085L20.15,-5.085L20.15,-9.223C20.15,-9.259 20.173,-9.277 20.218,-9.277L21.056,-9.277C21.453,-9.277 21.814,-9.196 22.138,-9.034C22.463,-8.872 22.738,-8.66 22.963,-8.398C23.189,-8.137 23.362,-7.846 23.484,-7.526C23.606,-7.206 23.666,-6.888 23.666,-6.573C23.666,-6.573 23.682,-6.57 23.714,-6.566C23.745,-6.561 23.779,-6.559 23.815,-6.559C23.86,-6.559 23.901,-6.561 23.937,-6.566C23.973,-6.57 23.991,-6.573 23.991,-6.573Z" style="fill:rgb(223,177,101);fill-rule:nonzero;"/>
        <path d="M36.162,-9.277C36.162,-9.277 36.165,-9.292 36.169,-9.323C36.174,-9.353 36.176,-9.385 36.176,-9.42C36.176,-9.463 36.174,-9.502 36.169,-9.536C36.165,-9.571 36.162,-9.588 36.162,-9.588L33.431,-9.588C33.413,-9.588 33.401,-9.571 33.397,-9.536C33.392,-9.502 33.39,-9.463 33.39,-9.42C33.39,-9.385 33.392,-9.353 33.397,-9.323C33.401,-9.292 33.413,-9.277 33.431,-9.277L34.553,-9.277C34.607,-9.277 34.634,-9.259 34.634,-9.223L34.634,-3.246L30.888,-9.345C30.843,-9.444 30.798,-9.509 30.753,-9.541C30.708,-9.573 30.663,-9.588 30.618,-9.588L27.345,-9.588C27.336,-9.588 27.329,-9.571 27.325,-9.536C27.32,-9.502 27.318,-9.463 27.318,-9.42C27.318,-9.385 27.32,-9.353 27.325,-9.323C27.329,-9.292 27.336,-9.277 27.345,-9.277L28.467,-9.277C28.512,-9.277 28.537,-9.273 28.542,-9.264C28.546,-9.255 28.549,-9.241 28.549,-9.223L28.549,-0.365C28.549,-0.347 28.546,-0.334 28.542,-0.325C28.537,-0.316 28.512,-0.311 28.467,-0.311L27.345,-0.311C27.336,-0.311 27.329,-0.294 27.325,-0.259C27.32,-0.225 27.318,-0.186 27.318,-0.143C27.318,-0.108 27.32,-0.076 27.325,-0.045C27.329,-0.015 27.336,0 27.345,0L30.077,0C30.086,0 30.09,-0.014 30.09,-0.041L30.09,-0.259C30.09,-0.294 30.086,-0.311 30.077,-0.311L28.927,-0.311C28.891,-0.311 28.873,-0.329 28.873,-0.365L28.873,-9.034L34.621,0.176C34.639,0.203 34.697,0.214 34.796,0.21C34.896,0.205 34.945,0.194 34.945,0.176L34.945,-9.22C34.945,-9.258 34.972,-9.277 35.026,-9.277L36.162,-9.277Z" style="fill:rgb(223,177,101);fill-rule:nonzero;"/>
        <path d="M41.139,0C41.148,0 41.153,-0.014 41.153,-0.041L41.153,-0.259C41.153,-0.294 41.148,-0.311 41.139,-0.311L39.99,-0.311C39.935,-0.311 39.908,-0.329 39.908,-0.365L39.908,-9.223C39.908,-9.259 39.935,-9.277 39.99,-9.277L41.139,-9.277C41.148,-9.277 41.153,-9.29 41.153,-9.316L41.153,-9.534C41.153,-9.57 41.148,-9.588 41.139,-9.588L36.784,-9.588C36.775,-9.588 36.769,-9.571 36.764,-9.536C36.76,-9.502 36.757,-9.463 36.757,-9.42C36.757,-9.385 36.76,-9.353 36.764,-9.323C36.769,-9.292 36.775,-9.277 36.784,-9.277L37.934,-9.277C37.97,-9.277 37.988,-9.259 37.988,-9.223L37.988,-0.365C37.988,-0.329 37.97,-0.311 37.934,-0.311L36.784,-0.311C36.775,-0.311 36.769,-0.294 36.764,-0.259C36.76,-0.225 36.757,-0.186 36.757,-0.143C36.757,-0.108 36.76,-0.076 36.764,-0.045C36.769,-0.015 36.775,0 36.784,0L41.139,0Z" style="fill:rgb(223,177,101);fill-rule:nonzero;"/>
        <path d="M50.93,-3.624C50.939,-3.624 50.944,-3.638 50.944,-3.665L50.944,-3.895C50.944,-3.931 50.939,-3.949 50.93,-3.949L46.589,-3.949C46.589,-3.949 46.587,-3.931 46.582,-3.895C46.578,-3.859 46.576,-3.818 46.576,-3.773C46.576,-3.737 46.578,-3.703 46.582,-3.672C46.587,-3.64 46.589,-3.624 46.589,-3.624L47.739,-3.624C47.775,-3.624 47.793,-3.611 47.793,-3.584L47.793,-1.244C47.793,-0.875 47.689,-0.588 47.482,-0.385C47.274,-0.183 46.882,-0.081 46.305,-0.081C46.017,-0.081 45.769,-0.115 45.561,-0.183C45.354,-0.25 45.169,-0.383 45.007,-0.582C44.863,-0.735 44.752,-0.926 44.676,-1.156C44.599,-1.386 44.54,-1.67 44.5,-2.008C44.459,-2.346 44.434,-2.743 44.425,-3.198C44.416,-3.654 44.412,-4.183 44.412,-4.787C44.412,-5.923 44.466,-6.832 44.574,-7.512C44.682,-8.193 44.876,-8.691 45.156,-9.007C45.336,-9.187 45.528,-9.313 45.73,-9.385C45.933,-9.458 46.179,-9.494 46.467,-9.494C46.801,-9.494 47.105,-9.394 47.38,-9.196C47.655,-8.998 47.894,-8.745 48.097,-8.439C48.3,-8.132 48.458,-7.796 48.57,-7.431C48.683,-7.066 48.739,-6.717 48.739,-6.383C48.739,-6.374 48.755,-6.367 48.787,-6.363C48.818,-6.358 48.852,-6.356 48.888,-6.356C48.933,-6.356 48.974,-6.358 49.01,-6.363C49.046,-6.367 49.064,-6.374 49.064,-6.383L49.064,-9.778C49.064,-9.787 49.046,-9.791 49.01,-9.791L48.793,-9.791C48.766,-9.791 48.748,-9.787 48.739,-9.778C48.73,-9.706 48.67,-9.633 48.557,-9.561C48.444,-9.489 48.293,-9.453 48.104,-9.453C48.041,-9.453 47.951,-9.471 47.833,-9.507C47.716,-9.543 47.583,-9.586 47.434,-9.636C47.286,-9.685 47.128,-9.728 46.961,-9.764C46.794,-9.8 46.63,-9.818 46.467,-9.818C45.863,-9.818 45.307,-9.683 44.797,-9.412C44.288,-9.142 43.846,-8.777 43.472,-8.317C43.098,-7.857 42.807,-7.323 42.6,-6.715C42.392,-6.106 42.289,-5.464 42.289,-4.787C42.289,-4.138 42.381,-3.512 42.566,-2.908C42.751,-2.304 43.014,-1.769 43.357,-1.305C43.7,-0.841 44.121,-0.469 44.621,-0.189C45.122,0.09 45.683,0.23 46.305,0.23C46.666,0.23 46.981,0.198 47.252,0.135C47.522,0.072 47.763,0 47.975,-0.081C48.187,-0.162 48.374,-0.234 48.537,-0.298C48.699,-0.361 48.852,-0.392 48.996,-0.392C49.177,-0.392 49.292,-0.363 49.341,-0.304C49.391,-0.246 49.411,-0.131 49.402,0.041C49.402,0.05 49.418,0.056 49.449,0.061C49.481,0.065 49.515,0.068 49.551,0.068C49.596,0.068 49.636,0.068 49.673,0.068C49.709,0.068 49.727,0.063 49.727,0.054L49.727,-3.584C49.727,-3.611 49.754,-3.624 49.808,-3.624L50.93,-3.624Z" style="fill:rgb(223,177,101);fill-rule:nonzero;"/>
        <path d="M58.693,-0.041L58.693,-3.3C58.693,-3.309 58.675,-3.313 58.639,-3.313L58.436,-3.313C58.409,-3.313 58.395,-3.309 58.395,-3.3C58.395,-2.948 58.343,-2.597 58.24,-2.245C58.136,-1.893 57.967,-1.576 57.733,-1.292C57.498,-1.008 57.196,-0.775 56.827,-0.595C56.457,-0.415 56.011,-0.325 55.488,-0.325L54.271,-0.325C54.207,-0.325 54.176,-0.343 54.176,-0.379L54.176,-4.76L54.419,-4.76C54.672,-4.76 54.895,-4.709 55.089,-4.605C55.283,-4.501 55.443,-4.361 55.569,-4.186C55.695,-4.01 55.79,-3.811 55.853,-3.591C55.916,-3.37 55.948,-3.147 55.948,-2.921C55.948,-2.912 55.963,-2.905 55.995,-2.901C56.026,-2.896 56.06,-2.894 56.096,-2.894C56.132,-2.894 56.166,-2.896 56.198,-2.901C56.229,-2.905 56.245,-2.912 56.245,-2.921L56.245,-6.924C56.245,-6.933 56.227,-6.938 56.191,-6.938L55.988,-6.938C55.961,-6.938 55.948,-6.933 55.948,-6.924C55.948,-6.69 55.916,-6.462 55.853,-6.241C55.79,-6.02 55.695,-5.824 55.569,-5.653C55.443,-5.482 55.283,-5.344 55.089,-5.24C54.895,-5.137 54.672,-5.085 54.419,-5.085L54.176,-5.085L54.176,-9.223C54.176,-9.259 54.207,-9.277 54.271,-9.277L55.447,-9.277C55.853,-9.277 56.198,-9.196 56.482,-9.034C56.766,-8.872 56.998,-8.66 57.178,-8.398C57.359,-8.137 57.491,-7.846 57.577,-7.526C57.663,-7.206 57.706,-6.888 57.706,-6.573C57.706,-6.573 57.721,-6.57 57.753,-6.566C57.784,-6.561 57.818,-6.559 57.854,-6.559C57.899,-6.559 57.94,-6.561 57.976,-6.566C58.012,-6.57 58.03,-6.573 58.03,-6.573L58.03,-9.548C58.03,-9.575 58.008,-9.588 57.963,-9.588L51.052,-9.588C51.043,-9.588 51.036,-9.571 51.032,-9.536C51.027,-9.502 51.025,-9.463 51.025,-9.42C51.025,-9.385 51.027,-9.353 51.032,-9.323C51.036,-9.292 51.043,-9.277 51.052,-9.277L52.201,-9.277C52.247,-9.277 52.269,-9.259 52.269,-9.223L52.269,-0.379C52.269,-0.343 52.247,-0.325 52.201,-0.325L51.052,-0.325C51.043,-0.325 51.036,-0.307 51.032,-0.27C51.027,-0.234 51.025,-0.194 51.025,-0.149C51.025,-0.113 51.027,-0.079 51.032,-0.047C51.036,-0.016 51.043,0 51.052,0L58.652,0C58.679,0 58.693,-0.014 58.693,-0.041Z" style="fill:rgb(223,177,101);fill-rule:nonzero;"/>
        <path d="M68.673,-0.243C68.682,-0.243 68.678,-0.257 68.66,-0.284C68.642,-0.311 68.619,-0.338 68.592,-0.365C68.565,-0.392 68.538,-0.417 68.511,-0.44C68.484,-0.462 68.47,-0.473 68.47,-0.473C68.38,-0.374 68.297,-0.309 68.22,-0.277C68.144,-0.246 68.015,-0.23 67.835,-0.23C67.6,-0.23 67.411,-0.298 67.267,-0.433C67.123,-0.568 67.05,-0.807 67.05,-1.15L67.05,-2.367C67.05,-2.691 66.999,-3.011 66.895,-3.327C66.791,-3.642 66.629,-3.924 66.408,-4.172C66.187,-4.42 65.905,-4.618 65.563,-4.767C65.22,-4.916 64.815,-4.99 64.346,-4.99C64.661,-4.99 64.961,-5.049 65.245,-5.166C65.529,-5.283 65.777,-5.443 65.989,-5.646C66.201,-5.849 66.368,-6.086 66.489,-6.356C66.611,-6.627 66.672,-6.92 66.672,-7.235C66.672,-7.569 66.6,-7.878 66.455,-8.162C66.311,-8.446 66.106,-8.693 65.84,-8.905C65.574,-9.117 65.252,-9.284 64.873,-9.406C64.495,-9.527 64.066,-9.588 63.588,-9.588L59.545,-9.588C59.536,-9.588 59.529,-9.571 59.525,-9.536C59.52,-9.502 59.518,-9.463 59.518,-9.42C59.518,-9.385 59.52,-9.353 59.525,-9.323C59.529,-9.292 59.536,-9.277 59.545,-9.277L60.694,-9.277C60.73,-9.277 60.748,-9.259 60.748,-9.223L60.748,-0.379C60.748,-0.343 60.73,-0.325 60.694,-0.325L59.545,-0.325C59.536,-0.325 59.529,-0.307 59.525,-0.27C59.52,-0.234 59.518,-0.194 59.518,-0.149C59.518,-0.113 59.52,-0.079 59.525,-0.047C59.529,-0.016 59.536,0 59.545,0L63.71,0L63.71,-0.325L62.75,-0.325C62.705,-0.325 62.682,-0.343 62.682,-0.379L62.682,-4.828L63.277,-4.828C63.863,-4.828 64.312,-4.718 64.623,-4.497C64.934,-4.276 65.09,-3.868 65.09,-3.273L65.09,-2.394C65.09,-1.907 65.164,-1.497 65.313,-1.163C65.461,-0.829 65.653,-0.559 65.887,-0.352C66.122,-0.144 66.381,0.005 66.665,0.095C66.949,0.185 67.222,0.23 67.483,0.23C67.763,0.23 67.997,0.187 68.186,0.101C68.376,0.016 68.538,-0.099 68.673,-0.243ZM64.738,-7.195C64.738,-6.762 64.72,-6.415 64.684,-6.153C64.648,-5.892 64.578,-5.687 64.474,-5.538C64.371,-5.389 64.224,-5.29 64.035,-5.24C63.845,-5.191 63.593,-5.166 63.277,-5.166L62.682,-5.166L62.682,-9.223C62.682,-9.259 62.705,-9.277 62.75,-9.277L63.264,-9.277C63.57,-9.277 63.818,-9.248 64.008,-9.189C64.197,-9.131 64.346,-9.025 64.454,-8.872C64.562,-8.718 64.637,-8.506 64.677,-8.236C64.718,-7.965 64.738,-7.618 64.738,-7.195Z" style="fill:rgb(223,177,101);fill-rule:nonzero;"/>
        <path d="M72.839,0C72.848,0 72.852,-0.014 72.852,-0.041L72.852,-0.259C72.852,-0.294 72.848,-0.311 72.839,-0.311L71.689,-0.311C71.635,-0.311 71.608,-0.329 71.608,-0.365L71.608,-9.223C71.608,-9.259 71.635,-9.277 71.689,-9.277L72.839,-9.277C72.848,-9.277 72.852,-9.29 72.852,-9.316L72.852,-9.534C72.852,-9.57 72.848,-9.588 72.839,-9.588L68.484,-9.588C68.475,-9.588 68.468,-9.571 68.464,-9.536C68.459,-9.502 68.457,-9.463 68.457,-9.42C68.457,-9.385 68.459,-9.353 68.464,-9.323C68.468,-9.292 68.475,-9.277 68.484,-9.277L69.634,-9.277C69.67,-9.277 69.688,-9.259 69.688,-9.223L69.688,-0.365C69.688,-0.329 69.67,-0.311 69.634,-0.311L68.484,-0.311C68.475,-0.311 68.468,-0.294 68.464,-0.259C68.459,-0.225 68.457,-0.186 68.457,-0.143C68.457,-0.108 68.459,-0.076 68.464,-0.045C68.468,-0.015 68.475,0 68.484,0L72.839,0Z" style="fill:rgb(223,177,101);fill-rule:nonzero;"/>
        <path d="M82.427,0C82.436,0 82.44,-0.014 82.44,-0.041L82.44,-0.259C82.44,-0.294 82.436,-0.311 82.427,-0.311L81.264,-0.311C81.237,-0.311 81.214,-0.316 81.196,-0.325C81.178,-0.334 81.169,-0.338 81.169,-0.338L77.788,-9.764C77.779,-9.782 77.725,-9.791 77.626,-9.791C77.536,-9.791 77.486,-9.782 77.477,-9.764L74.421,-0.879C74.331,-0.618 74.27,-0.458 74.238,-0.399C74.207,-0.34 74.159,-0.311 74.096,-0.311L73.069,-0.311C73.06,-0.311 73.053,-0.294 73.048,-0.259C73.044,-0.225 73.041,-0.186 73.041,-0.143C73.041,-0.108 73.044,-0.076 73.048,-0.045C73.053,-0.015 73.06,0 73.069,0L75.692,0C75.701,0 75.708,-0.015 75.712,-0.045C75.717,-0.076 75.719,-0.108 75.719,-0.143C75.719,-0.186 75.717,-0.225 75.712,-0.259C75.708,-0.294 75.701,-0.311 75.692,-0.311L74.61,-0.311C74.583,-0.311 74.576,-0.345 74.59,-0.413C74.603,-0.481 74.646,-0.637 74.718,-0.882L75.476,-3.056L78.248,-3.056L79.114,-0.338C79.123,-0.338 79.12,-0.334 79.107,-0.325C79.093,-0.316 79.078,-0.311 79.06,-0.311L77.951,-0.311C77.942,-0.311 77.935,-0.294 77.93,-0.259C77.926,-0.225 77.924,-0.186 77.924,-0.143C77.924,-0.108 77.926,-0.076 77.93,-0.045C77.935,-0.015 77.942,0 77.951,0L82.427,0ZM78.14,-3.367L75.584,-3.367L76.896,-7.249L78.14,-3.367Z" style="fill:rgb(223,177,101);fill-rule:nonzero;"/>
        <path d="M91.975,-0.041L91.975,-3.421C91.975,-3.431 91.925,-3.435 91.826,-3.435C91.727,-3.435 91.677,-3.431 91.677,-3.421C91.677,-3.079 91.614,-2.725 91.488,-2.36C91.362,-1.995 91.177,-1.661 90.933,-1.359C90.69,-1.057 90.383,-0.809 90.014,-0.615C89.644,-0.421 89.216,-0.325 88.729,-0.325L87.877,-0.325C87.841,-0.325 87.823,-0.343 87.823,-0.379L87.823,-9.223C87.823,-9.259 87.841,-9.277 87.877,-9.277L89.026,-9.277C89.036,-9.277 89.04,-9.29 89.04,-9.316L89.04,-9.534C89.04,-9.57 89.036,-9.588 89.026,-9.588L84.672,-9.588C84.663,-9.588 84.656,-9.571 84.652,-9.536C84.647,-9.502 84.645,-9.463 84.645,-9.42C84.645,-9.385 84.647,-9.353 84.652,-9.323C84.656,-9.292 84.663,-9.277 84.672,-9.277L85.821,-9.277C85.857,-9.277 85.875,-9.259 85.875,-9.223L85.875,-0.379C85.875,-0.343 85.857,-0.325 85.821,-0.325L84.672,-0.325C84.663,-0.325 84.656,-0.307 84.652,-0.27C84.647,-0.234 84.645,-0.194 84.645,-0.149C84.645,-0.113 84.647,-0.079 84.652,-0.047C84.656,-0.016 84.663,0 84.672,0L91.934,0C91.961,0 91.975,-0.014 91.975,-0.041Z" style="fill:rgb(223,177,101);fill-rule:nonzero;"/>
        <path d="M97.1,0C97.109,0 97.114,-0.014 97.114,-0.041L97.114,-0.259C97.114,-0.294 97.109,-0.311 97.1,-0.311L95.951,-0.311C95.897,-0.311 95.869,-0.329 95.869,-0.365L95.869,-9.223C95.869,-9.259 95.897,-9.277 95.951,-9.277L97.1,-9.277C97.109,-9.277 97.114,-9.29 97.114,-9.316L97.114,-9.534C97.114,-9.57 97.109,-9.588 97.1,-9.588L92.746,-9.588C92.736,-9.588 92.73,-9.571 92.725,-9.536C92.721,-9.502 92.718,-9.463 92.718,-9.42C92.718,-9.385 92.721,-9.353 92.725,-9.323C92.73,-9.292 92.736,-9.277 92.746,-9.277L93.895,-9.277C93.931,-9.277 93.949,-9.259 93.949,-9.223L93.949,-0.365C93.949,-0.329 93.931,-0.311 93.895,-0.311L92.746,-0.311C92.736,-0.311 92.73,-0.294 92.725,-0.259C92.721,-0.225 92.718,-0.186 92.718,-0.143C92.718,-0.108 92.721,-0.076 92.725,-0.045C92.73,-0.015 92.736,0 92.746,0L97.1,0Z" style="fill:rgb(223,177,101);fill-rule:nonzero;"/>
        <path d="M108.96,0L108.96,-0.311L107.811,-0.311C107.766,-0.311 107.743,-0.329 107.743,-0.365L107.743,-9.223C107.743,-9.259 107.766,-9.277 107.811,-9.277L108.96,-9.277L108.96,-9.588L105.904,-9.588C105.814,-9.588 105.746,-9.507 105.701,-9.345L103.619,-2.881L101.32,-9.345C101.274,-9.507 101.211,-9.588 101.13,-9.588L98.047,-9.588C98.038,-9.588 98.031,-9.571 98.027,-9.536C98.022,-9.502 98.02,-9.463 98.02,-9.42C98.02,-9.385 98.022,-9.353 98.027,-9.323C98.031,-9.292 98.038,-9.277 98.047,-9.277L99.196,-9.277C99.232,-9.277 99.25,-9.259 99.25,-9.223L99.25,-0.365C99.25,-0.329 99.232,-0.311 99.196,-0.311L98.047,-0.311C98.038,-0.311 98.031,-0.294 98.027,-0.259C98.022,-0.225 98.02,-0.186 98.02,-0.143C98.02,-0.108 98.022,-0.076 98.027,-0.045C98.031,-0.015 98.038,0 98.047,0L100.792,0C100.801,0 100.806,-0.014 100.806,-0.041L100.806,-0.259C100.806,-0.294 100.801,-0.311 100.792,-0.311L99.656,-0.311C99.611,-0.311 99.586,-0.316 99.582,-0.325C99.577,-0.334 99.575,-0.347 99.575,-0.365L99.575,-8.736L102.712,0.176C102.721,0.194 102.771,0.203 102.861,0.203C102.96,0.203 103.014,0.194 103.024,0.176L105.809,-8.493L105.809,-0.365C105.809,-0.329 105.782,-0.311 105.728,-0.311L104.606,-0.311C104.597,-0.311 104.59,-0.294 104.585,-0.259C104.581,-0.225 104.579,-0.186 104.579,-0.143C104.579,-0.108 104.581,-0.076 104.585,-0.045C104.59,-0.015 104.597,0 104.606,0L108.96,0Z" style="fill:rgb(223,177,101);fill-rule:nonzero;"/>
        <path d="M114.059,0C114.068,0 114.072,-0.014 114.072,-0.041L114.072,-0.259C114.072,-0.294 114.068,-0.311 114.059,-0.311L112.909,-0.311C112.855,-0.311 112.828,-0.329 112.828,-0.365L112.828,-9.223C112.828,-9.259 112.855,-9.277 112.909,-9.277L114.059,-9.277C114.068,-9.277 114.072,-9.29 114.072,-9.316L114.072,-9.534C114.072,-9.57 114.068,-9.588 114.059,-9.588L109.704,-9.588C109.695,-9.588 109.688,-9.571 109.684,-9.536C109.679,-9.502 109.677,-9.463 109.677,-9.42C109.677,-9.385 109.679,-9.353 109.684,-9.323C109.688,-9.292 109.695,-9.277 109.704,-9.277L110.854,-9.277C110.89,-9.277 110.908,-9.259 110.908,-9.223L110.908,-0.365C110.908,-0.329 110.89,-0.311 110.854,-0.311L109.704,-0.311C109.695,-0.311 109.688,-0.294 109.684,-0.259C109.679,-0.225 109.677,-0.186 109.677,-0.143C109.677,-0.108 109.679,-0.076 109.684,-0.045C109.688,-0.015 109.695,0 109.704,0L114.059,0Z" style="fill:rgb(223,177,101);fill-rule:nonzero;"/>
        <path d="M123.025,-6.153L123.025,-9.548C123.025,-9.575 123.016,-9.588 122.998,-9.588L114.884,-9.588C114.857,-9.588 114.843,-9.575 114.843,-9.548L114.843,-6.153C114.843,-6.144 114.859,-6.138 114.891,-6.133C114.922,-6.128 114.956,-6.126 114.992,-6.126C115.028,-6.126 115.062,-6.128 115.093,-6.133C115.125,-6.138 115.141,-6.144 115.141,-6.153C115.141,-6.541 115.188,-6.922 115.283,-7.296C115.377,-7.67 115.528,-8.004 115.736,-8.297C115.943,-8.59 116.211,-8.824 116.54,-9C116.87,-9.176 117.268,-9.264 117.737,-9.264L117.873,-9.264C117.927,-9.264 117.954,-9.246 117.954,-9.21L117.954,-0.365C117.954,-0.329 117.927,-0.311 117.873,-0.311L116.737,-0.311C116.737,-0.311 116.734,-0.294 116.73,-0.259C116.725,-0.225 116.723,-0.186 116.723,-0.143C116.723,-0.108 116.725,-0.076 116.73,-0.045C116.734,-0.015 116.737,0 116.737,0L121.064,0C121.073,0 121.078,-0.014 121.078,-0.041L121.078,-0.259C121.078,-0.294 121.073,-0.311 121.064,-0.311L119.942,-0.311C119.888,-0.311 119.861,-0.329 119.861,-0.365L119.861,-9.21C119.861,-9.246 119.888,-9.264 119.942,-9.264L120.063,-9.264C120.532,-9.264 120.936,-9.176 121.274,-9C121.612,-8.824 121.889,-8.59 122.105,-8.297C122.322,-8.004 122.482,-7.67 122.586,-7.296C122.689,-6.922 122.741,-6.541 122.741,-6.153C122.741,-6.135 122.786,-6.126 122.876,-6.126C122.975,-6.126 123.025,-6.135 123.025,-6.153Z" style="fill:rgb(223,177,101);fill-rule:nonzero;"/>
        <path d="M131.45,-0.041L131.45,-3.3C131.45,-3.309 131.432,-3.313 131.396,-3.313L131.193,-3.313C131.166,-3.313 131.153,-3.309 131.153,-3.3C131.153,-2.948 131.101,-2.597 130.997,-2.245C130.894,-1.893 130.725,-1.576 130.49,-1.292C130.256,-1.008 129.954,-0.775 129.584,-0.595C129.214,-0.415 128.768,-0.325 128.245,-0.325L127.028,-0.325C126.965,-0.325 126.933,-0.343 126.933,-0.379L126.933,-4.76L127.177,-4.76C127.429,-4.76 127.652,-4.709 127.846,-4.605C128.04,-4.501 128.2,-4.361 128.326,-4.186C128.453,-4.01 128.547,-3.811 128.61,-3.591C128.673,-3.37 128.705,-3.147 128.705,-2.921C128.705,-2.912 128.721,-2.905 128.752,-2.901C128.784,-2.896 128.818,-2.894 128.854,-2.894C128.89,-2.894 128.924,-2.896 128.955,-2.901C128.987,-2.905 129.003,-2.912 129.003,-2.921L129.003,-6.924C129.003,-6.933 128.984,-6.938 128.948,-6.938L128.746,-6.938C128.719,-6.938 128.705,-6.933 128.705,-6.924C128.705,-6.69 128.673,-6.462 128.61,-6.241C128.547,-6.02 128.453,-5.824 128.326,-5.653C128.2,-5.482 128.04,-5.344 127.846,-5.24C127.652,-5.137 127.429,-5.085 127.177,-5.085L126.933,-5.085L126.933,-9.223C126.933,-9.259 126.965,-9.277 127.028,-9.277L128.205,-9.277C128.61,-9.277 128.955,-9.196 129.239,-9.034C129.523,-8.872 129.755,-8.66 129.936,-8.398C130.116,-8.137 130.249,-7.846 130.335,-7.526C130.42,-7.206 130.463,-6.888 130.463,-6.573C130.463,-6.573 130.479,-6.57 130.51,-6.566C130.542,-6.561 130.576,-6.559 130.612,-6.559C130.657,-6.559 130.698,-6.561 130.734,-6.566C130.77,-6.57 130.788,-6.573 130.788,-6.573L130.788,-9.548C130.788,-9.575 130.765,-9.588 130.72,-9.588L123.809,-9.588C123.8,-9.588 123.794,-9.571 123.789,-9.536C123.785,-9.502 123.782,-9.463 123.782,-9.42C123.782,-9.385 123.785,-9.353 123.789,-9.323C123.794,-9.292 123.8,-9.277 123.809,-9.277L124.959,-9.277C125.004,-9.277 125.027,-9.259 125.027,-9.223L125.027,-0.379C125.027,-0.343 125.004,-0.325 124.959,-0.325L123.809,-0.325C123.8,-0.325 123.794,-0.307 123.789,-0.27C123.785,-0.234 123.782,-0.194 123.782,-0.149C123.782,-0.113 123.785,-0.079 123.789,-0.047C123.794,-0.016 123.8,0 123.809,0L131.41,0C131.437,0 131.45,-0.014 131.45,-0.041Z" style="fill:rgb(223,177,101);fill-rule:nonzero;"/>
        <path d="M140.592,-4.787C140.592,-5.446 140.484,-6.068 140.268,-6.654C140.051,-7.24 139.754,-7.749 139.375,-8.182C138.997,-8.615 138.555,-8.957 138.05,-9.21C137.545,-9.462 137.004,-9.588 136.427,-9.588L132.302,-9.588C132.293,-9.588 132.287,-9.571 132.282,-9.536C132.278,-9.502 132.275,-9.463 132.275,-9.42C132.275,-9.385 132.278,-9.353 132.282,-9.323C132.287,-9.292 132.293,-9.277 132.302,-9.277L133.438,-9.277C133.483,-9.277 133.506,-9.259 133.506,-9.223L133.506,-0.365C133.506,-0.329 133.483,-0.311 133.438,-0.311L132.302,-0.311C132.293,-0.311 132.287,-0.294 132.282,-0.259C132.278,-0.225 132.275,-0.186 132.275,-0.143C132.275,-0.108 132.278,-0.076 132.282,-0.045C132.287,-0.015 132.293,0 132.302,0L136.427,0C137.004,0 137.545,-0.126 138.05,-0.379C138.555,-0.631 138.997,-0.974 139.375,-1.406C139.754,-1.839 140.051,-2.346 140.268,-2.928C140.484,-3.509 140.592,-4.129 140.592,-4.787ZM138.469,-4.787C138.469,-4.172 138.458,-3.646 138.435,-3.207C138.413,-2.769 138.372,-2.393 138.314,-2.081C138.255,-1.769 138.178,-1.509 138.084,-1.301C137.989,-1.093 137.87,-0.917 137.725,-0.772C137.545,-0.591 137.356,-0.469 137.157,-0.406C136.959,-0.343 136.716,-0.311 136.427,-0.311L135.507,-0.311C135.462,-0.311 135.44,-0.32 135.44,-0.338L135.44,-9.223C135.44,-9.259 135.462,-9.277 135.507,-9.277L136.427,-9.277C136.716,-9.277 136.959,-9.243 137.157,-9.176C137.356,-9.108 137.545,-8.983 137.725,-8.802C138.014,-8.504 138.21,-8.032 138.314,-7.385C138.417,-6.738 138.469,-5.873 138.469,-4.787Z" style="fill:rgb(223,177,101);fill-rule:nonzero;"/>
    </g>
</svg>
